<svg width="48" height="48" viewBox="0 0 48 48" fill="none" xmlns="http://www.w3.org/2000/svg">
<path d="M17.9547 33.3994L24.0873 29.7005L30.2198 33.4481L28.6137 26.4395L34.0161 21.7671L26.9102 21.1344L24.0873 14.5151L21.2643 21.0857L14.1584 21.7184L19.5609 26.4395L17.9547 33.3994ZM14.9858 37.4839L17.3999 27.1404L9.37305 20.1862L19.9463 19.2712L24.0873 9.51562L28.2282 19.2693L38.7995 20.1843L30.7727 27.1384L33.1887 37.482L24.0873 31.9919L14.9858 37.4839Z" fill="#EDB750"/>
<path d="M17.9547 33.3994L24.0873 29.7005L30.2198 33.4481L28.6137 26.4395L34.0161 21.7671L26.9102 21.1344L24.0873 14.5151L21.2643 21.0857L14.1584 21.7184L19.5609 26.4395L17.9547 33.3994Z" fill="#EDB750"/>
</svg>
